<svg width="1973" height="591" viewBox="0 0 1973 591" fill="none" xmlns="http://www.w3.org/2000/svg">
<g clip-path="url(#clip0_1_1871)">
<path d="M1887.57 398.211C1865.13 398.787 1843.45 395.047 1825.62 380.853C1817.94 374.811 1812 365.988 1807.2 357.261C1802.21 348.15 1805.86 338.368 1814.11 332.71C1821.4 327.627 1831.75 328.298 1839.14 334.723C1842.97 338.08 1846.33 341.916 1849.69 345.752C1863.02 361.48 1893.61 367.81 1911.74 357.932C1919.12 353.904 1924.59 348.054 1924.3 338.656C1924.01 329.737 1918.35 324.75 1910.97 322.448C1897.26 318.228 1883.06 315.639 1869.25 311.419C1857.55 307.871 1845.47 304.514 1834.82 298.76C1796.65 278.141 1800.49 227.024 1834.82 205.35C1866.09 185.69 1918.64 187.704 1946.93 211.2C1953.55 216.666 1958.25 225.01 1962.28 232.778C1966.4 240.738 1964.68 248.794 1957.29 254.548C1950.19 260.111 1942.23 260.782 1934.56 255.987C1930.63 253.493 1927.18 249.945 1924.3 246.205C1911.16 229.709 1888.34 223.668 1869.16 232.011C1860.91 235.56 1855.06 241.314 1854.87 250.904C1854.77 259.919 1860.04 265.673 1868 268.358C1877.88 271.715 1888.24 273.825 1898.21 276.894C1915.38 282.168 1932.93 286.58 1949.23 293.677C1971.87 303.459 1977.05 332.901 1969.95 352.657C1963.62 370.304 1951.63 382.675 1934.75 388.909C1919.79 394.471 1903.78 396.869 1888.14 400.609C1887.95 399.746 1887.66 398.883 1887.47 398.02L1887.57 398.211Z" fill="#404040"/>
<path d="M1696.53 348.533C1703.34 327.818 1710.15 307.199 1716.96 286.484C1725.4 260.878 1733.74 235.176 1742.37 209.57C1745.54 200.171 1751.48 193.458 1762.32 192.594C1782.17 190.868 1793.3 207.268 1786.01 227.887C1779.77 245.725 1772.87 263.371 1766.25 281.017C1749.37 325.612 1732.78 370.303 1715.52 414.707C1711.97 423.817 1706.79 432.545 1701.23 440.601C1685.6 463.234 1650.78 473.879 1624.7 464.672C1613.67 460.74 1608.68 452.301 1610.7 440.696C1612.13 432.161 1618.37 428.325 1630.64 428.133C1651.26 427.845 1659.8 422.091 1665.84 402.91C1667.09 398.786 1666.61 393.32 1665.07 389.196C1648.48 344.793 1631.51 300.582 1614.63 256.274C1610.79 246.205 1606.38 236.231 1603.22 225.969C1597.08 206.117 1610.22 190.101 1630.07 192.594C1641.67 194.129 1646.76 202.377 1650.02 212.159C1664.31 255.411 1678.31 298.759 1692.5 342.108C1693.17 344.122 1693.84 346.04 1694.52 347.958C1695.19 348.054 1695.95 348.245 1696.63 348.341L1696.53 348.533Z" fill="#404040"/>
<path d="M1523.42 368.769C1496.86 396.772 1467.03 404.541 1435.19 392.649C1410.93 383.538 1397.5 363.302 1397.69 335.97C1397.89 311.515 1411.22 294.156 1435.96 285.045C1460.13 276.03 1485.54 276.989 1510.57 275.455C1524.19 274.592 1524.77 274.496 1523.9 260.877C1522.94 244.862 1514.31 235.08 1498.2 231.915C1478.73 228.079 1462.72 233.353 1450.73 249.657C1448.33 253.014 1445.36 256.178 1442 258.576C1434.04 264.33 1423.01 264.138 1415.82 258.768C1409.49 254.068 1405.94 243.807 1409.87 235.079C1413.61 226.832 1418.31 218.009 1425.03 212.35C1456.96 185.114 1518.63 185.21 1550.95 211.775C1563.99 222.516 1570.99 236.902 1571.28 253.397C1572.05 293.868 1571.76 334.339 1571.47 374.811C1571.38 388.812 1562.94 397.252 1550.08 397.923C1535.89 398.691 1528.12 392.265 1525.53 377.496C1525.05 374.907 1524.38 372.413 1523.52 368.673L1523.42 368.769ZM1523.33 308.254C1514.7 308.254 1506.83 307.583 1499.26 308.446C1486.21 309.884 1473.07 311.418 1460.51 314.775C1450.73 317.364 1445.17 326.859 1445.65 336.066C1446.13 345.848 1450.73 353.808 1460.03 357.068C1477.39 363.11 1494.46 361.864 1509.33 349.972C1522.56 339.422 1525.73 324.941 1523.33 308.35V308.254Z" fill="#404040"/>
<path d="M1313.01 226.16C1313.01 203.91 1313.01 182.716 1313.01 161.521C1313.01 155.479 1312.72 149.533 1313.3 143.491C1314.64 129.394 1323.18 122.009 1337.28 122.201C1350.8 122.393 1358.95 129.873 1360.48 143.491C1360.68 145.314 1360.68 147.04 1360.68 148.862C1360.68 223.571 1360.68 298.279 1360.68 372.892C1360.68 390.155 1351.56 398.786 1335.07 398.019C1322.12 397.443 1313.97 389.387 1313.2 376.345C1313.01 372.796 1313.2 369.152 1313.2 363.685C1310.81 366.658 1309.27 368.193 1308.12 370.015C1283.28 408.568 1218.83 406.266 1190.64 368.48C1161.87 329.927 1163.5 260.301 1188.53 225.489C1214.52 189.333 1264.1 181.757 1298.05 209.569C1303.42 213.98 1307.55 220.022 1313.11 226.256L1313.01 226.16ZM1219.79 296.074C1218.83 309.308 1220.94 322.351 1227.56 334.723C1236 350.355 1249.04 357.931 1266.31 357.835C1283.76 357.739 1297.19 349.396 1304.48 333.667C1315.79 309.308 1316.27 284.182 1305.44 259.534C1298.72 244.19 1286.25 234.791 1269.28 233.545C1252.5 232.298 1238.97 239.203 1229.58 253.492C1221.14 266.439 1218.93 280.633 1219.79 296.17V296.074Z" fill="#404040"/>
<path d="M1142.3 295.594C1141.73 329.256 1133.48 359.562 1104.81 380.948C1065.29 410.486 978.981 408.089 956.54 335.873C945.319 299.43 947.429 263.658 968.528 230.476C978.214 215.227 991.832 204.678 1008.81 198.924C1043.81 187.032 1077.57 189.045 1107.68 212.35C1131.08 230.476 1139.71 256.37 1142.21 284.757C1142.5 288.306 1142.21 291.95 1142.21 295.498L1142.3 295.594ZM1093.3 296.553C1093.87 281.208 1090.8 266.727 1083.9 253.013C1069.99 225.393 1026.74 224.913 1010.82 249.944C994.997 274.783 995.572 319.186 1012.64 343.258C1026.17 362.343 1056.76 365.412 1074.12 349.684C1089.94 335.202 1092.63 316.213 1093.39 296.553H1093.3Z" fill="#404040"/>
<path d="M865.815 362.535C843.086 390.635 815.274 397.636 783.53 389.676C755.622 382.675 738.743 362.727 730.687 336.545C719.946 302.02 721.001 267.399 737.113 234.025C759.362 188.087 826.782 177.634 859.293 216.57C860.924 218.584 862.938 220.407 865.431 222.996C866.39 218.297 867.062 214.556 867.925 210.912C871.185 198.157 881.447 191.252 894.969 192.499C906.67 193.649 915.205 203.048 915.205 215.995C915.301 275.743 915.972 335.394 914.917 395.142C914.342 426.119 896.887 448.177 868.692 459.206C833.208 473.112 796.669 473.495 762.431 454.602C752.361 449.04 743.922 439.45 736.825 430.147C730.112 421.324 732.413 410.199 739.51 403.965C746.223 398.019 757.924 397.54 766.363 403.294C770.583 406.171 774.227 409.72 777.967 413.172C797.532 431.01 824.864 434.654 847.401 422.475C857.567 416.912 864.28 408.377 865.431 397.06C866.582 386.415 865.719 375.674 865.719 362.439L865.815 362.535ZM867.158 293.964C866.199 285.333 865.911 276.606 863.993 268.166C859.677 248.698 843.182 233.641 825.919 232.394C803.861 230.668 787.558 239.779 779.981 259.439C771.446 281.785 771.542 304.801 779.886 327.147C786.023 343.45 798.874 352.561 816.137 354.096C833.304 355.63 847.114 349.109 856.896 334.532C865.144 322.16 866.87 308.446 867.158 294.06V293.964Z" fill="#404040"/>
<path d="M565.158 388.621C565.35 359.467 558.445 332.326 542.717 307.487C533.702 293.294 537.538 277.853 551.157 271.619C561.898 266.632 573.79 269.989 580.215 280.251C597.286 307.583 608.027 336.929 610.808 369.441C615.028 417.776 604.862 462.563 579.64 503.609C552.787 547.341 515.289 577.742 463.789 587.812C438.566 592.703 413.535 591.744 390.039 579.469C385.052 576.879 380.161 573.715 375.941 569.878C367.502 562.206 366.255 550.218 372.201 541.203C378.818 531.134 391.094 526.434 401.164 532.38C416.892 541.683 433.1 545.327 451.13 542.354C475.297 538.422 496.204 527.969 513.754 510.994C547.8 478.003 565.063 436.381 565.158 388.43V388.621Z" fill="url(#paint0_linear_1_1871)"/>
<path d="M0.000536918 257.04C5.37112 155.479 50.062 77.4137 140.403 27.8317C175.216 8.74699 213.481 0.978884 253.089 0.0198515C263.255 -0.267858 272.174 2.51323 277.449 12.1995C286.08 27.9276 275.722 44.9024 256.829 46.9164C238.416 48.8345 219.523 49.6978 201.685 54.3011C144.623 69.1661 102.713 103.787 73.7501 154.904C55.9121 186.456 46.4177 220.501 46.5136 256.369C46.5136 308.54 64.2557 355.246 98.3014 395.045C143.28 447.888 201.493 470.809 270.064 467.644C311.207 465.726 348.513 453.259 377.572 422.186C399.629 398.594 412.193 370.494 416.892 338.846C422.071 303.649 419.098 269.316 403.849 236.805C390.614 208.609 370.954 187.606 338.635 181.469C299.89 174.18 259.323 201.896 251.843 240.833C247.719 262.219 250.979 281.975 262.775 300.293C278.6 325.036 294.424 349.875 310.344 374.522C318.016 386.414 316.194 400.032 305.356 408.088C294.903 415.856 280.709 413.363 272.462 401.087C259.035 381.139 246.568 360.616 233.429 340.572C223.071 324.748 213.385 308.732 207.823 290.319C186.245 218.296 241.773 138.984 316.673 134.764C374.119 131.503 415.166 157.876 440.197 206.979C478.846 282.838 475.872 359.082 429.647 431.105C399.821 477.618 354.459 502.265 300.465 511.472C248.294 520.391 197.849 513.773 149.993 491.908C100.507 469.274 62.5294 433.407 35.4847 386.126C12.6597 346.326 -0.0953663 303.65 0.000536918 257.136V257.04Z" fill="url(#paint1_linear_1_1871)"/>
</g>
<defs>
<linearGradient id="paint0_linear_1_1871" x1="380.442" y1="600.864" x2="690.25" y2="367.715" gradientUnits="userSpaceOnUse">
<stop stop-color="#5900AF"/>
<stop offset="1" stop-color="#FF00F3"/>
</linearGradient>
<linearGradient id="paint1_linear_1_1871" x1="22.8997" y1="531.841" x2="537.305" y2="68.5557" gradientUnits="userSpaceOnUse">
<stop stop-color="#5900AF"/>
<stop offset="1" stop-color="#FF00F3"/>
</linearGradient>
<clipPath id="clip0_1_1871">
<rect width="1972.91" height="590.566" fill="white"/>
</clipPath>
</defs>
</svg>
