<svg width="113" height="26" viewBox="0 0 113 26" fill="none" xmlns="http://www.w3.org/2000/svg">
<path d="M10.2046 25.0619H5.91839V8.27935H0V4.77948H16.1372V8.27935H10.2046V25.0619Z" fill="#008593"/>
<path d="M16.2224 25.0619V9.99415H20.2247V12.7069H20.3099C20.8492 10.7953 22.1408 9.7552 23.929 9.7552C24.4116 9.7552 24.8232 9.82548 25.107 9.90981V13.5221C24.7664 13.3816 24.1987 13.2832 23.6026 13.2832C21.5588 13.2832 20.3667 14.5201 20.3667 16.6425V25.0619H16.2224Z" fill="#008593"/>
<path d="M40.861 9.99415V25.0619H36.8587V22.3491H36.7735C36.0213 24.2466 34.5169 25.343 32.2176 25.343C28.9249 25.343 26.7392 23.2206 26.7392 19.7066V9.99415H30.8835V18.8492C30.8835 20.8592 31.8912 21.9274 33.7221 21.9274C35.5671 21.9274 36.7167 20.6203 36.7167 18.6244V9.99415H40.861Z" fill="#008593"/>
<path d="M43.3022 14.4217C43.3022 11.5543 45.8143 9.67087 49.7173 9.67087C53.5352 9.67087 56.0189 11.5824 56.0757 14.506H52.2579C52.1727 13.2972 51.1934 12.5523 49.6606 12.5523C48.2271 12.5523 47.2904 13.1988 47.2904 14.1687C47.2904 14.9136 47.9432 15.4197 49.2774 15.7289L52.1869 16.3473C55.2383 17.022 56.4731 18.2167 56.4731 20.4657C56.4731 23.4314 53.7197 25.3851 49.7032 25.3851C45.644 25.3851 43.1461 23.4455 42.919 20.5078H46.9639C47.1626 21.7728 48.1703 22.5037 49.8167 22.5037C51.3921 22.5037 52.343 21.8853 52.343 20.9014C52.343 20.1424 51.8321 19.7207 50.4696 19.3974L47.6594 18.779C44.7783 18.1324 43.3022 16.6425 43.3022 14.4217Z" fill="#008593"/>
<path d="M59.6523 6.52239H63.7966V9.99415H66.6068V13.0864H63.7966V20.297C63.7966 21.4496 64.3643 21.9977 65.5849 21.9977C65.9539 21.9977 66.3371 21.9696 66.5926 21.9274V24.9494C66.1668 25.0478 65.4571 25.1181 64.6198 25.1181C61.0432 25.1181 59.6523 23.9374 59.6523 20.9998V13.0864H57.5092V9.99415H59.6523V6.52239Z" fill="#008593"/>
<path d="M105.818 12.7069C104.002 12.7069 102.696 14.0703 102.554 15.9538H109.012C108.927 14.0281 107.664 12.7069 105.818 12.7069ZM109.069 20.4516H112.872C112.418 23.4033 109.693 25.3851 105.932 25.3851C101.248 25.3851 98.4382 22.4194 98.4382 17.5983C98.4382 12.7912 101.277 9.67087 105.776 9.67087C110.204 9.67087 113 12.6366 113 17.2188V18.4697H102.512V18.7227C102.512 20.8733 103.888 22.3491 106.003 22.3491C107.522 22.3491 108.685 21.6042 109.069 20.4516Z" fill="#008593"/>
<path fill-rule="evenodd" clip-rule="evenodd" d="M95.2098 13.6237C95.3284 13.6715 95.4058 13.7845 95.4058 13.9098V22.6715C95.4058 23.5543 95.0469 24.4009 94.408 25.0251C93.7685 25.6493 92.902 26 91.9982 26H91.9971C91.0932 26 90.2262 25.6493 89.5873 25.0251C88.9484 24.4009 88.5894 23.5543 88.5894 22.6715V20.1662C88.5894 19.9614 88.6722 19.7651 88.8202 19.62L94.8642 13.6914C94.955 13.6025 95.0912 13.5758 95.2098 13.6237ZM70.0917 13.6237C69.9731 13.6715 69.8956 13.7845 69.8956 13.9098V22.6715C69.8956 23.5543 70.2546 24.4009 70.894 25.0251C71.5329 25.6493 72.3999 26 73.3038 26H73.3044C74.2082 26 75.0752 25.6493 75.7141 25.0251C76.3536 24.4009 76.7126 23.5543 76.7126 22.6715V20.1662C76.7126 19.9614 76.6298 19.7651 76.4818 19.62C75.5218 18.6788 71.8353 15.0626 70.4373 13.6914C70.347 13.6025 70.2103 13.5758 70.0917 13.6237ZM70.8369 8.47501C69.582 9.70031 69.582 11.687 70.8369 12.9123L80.2217 22.0782C80.8644 22.7058 81.7356 23.0583 82.6443 23.0583C83.553 23.0583 84.4248 22.7058 85.0669 22.0782C87.7064 19.5003 91.8956 15.4088 94.4737 12.8913C95.7269 11.6671 95.7269 9.68221 94.4737 8.45801L94.4731 8.45775C93.2199 7.23339 91.1873 7.23339 89.9335 8.45775C87.1076 11.2178 82.6481 15.5732 82.6481 15.5732C82.6481 15.5732 78.2019 11.2306 75.3803 8.47491C74.1254 7.24956 72.0912 7.24967 70.8369 8.47501ZM76.7403 3.34028C76.7403 1.49673 75.2077 0 73.3198 0C71.4325 0 69.8999 1.49673 69.8999 3.34028C69.8999 5.1838 71.4325 6.68056 73.3198 6.68056C75.2077 6.68056 76.7403 5.1838 76.7403 3.34028ZM95.4139 3.34028C95.4139 1.49673 93.8812 0 91.9939 0C90.106 0 88.5734 1.49673 88.5734 3.34028C88.5734 5.1838 90.106 6.68056 91.9939 6.68056C93.8812 6.68056 95.4139 5.1838 95.4139 3.34028Z" fill="#008593"/>
</svg>
